<svg xmlns="http://www.w3.org/2000/svg" width="20" height="22" fill="none"><path fill="#000" d="M19.73 19.14 18 4.4h-3.19C14.433 2.145 12.433.44 10 .44 7.568.44 5.568 2.145 5.19 4.4H2L.27 19.14c-.108.825.216 1.32.487 1.65.27.275.756.66 1.675.66h15.136c.702 0 1.297-.22 1.675-.715.379-.385.54-.99.487-1.595ZM10 2.64c1.19 0 2.216.77 2.54 1.76H7.405C7.784 3.355 8.811 2.64 10 2.64ZM2.432 19.25 3.946 6.6h1.19v1.65c0 .605.486 1.1 1.08 1.1.595 0 1.081-.495 1.081-1.1V6.6h5.406v1.65c0 .605.486 1.1 1.08 1.1.595 0 1.082-.495 1.082-1.1V6.6h1.189l1.514 12.65H2.431Z"/></svg>